<svg id="Layer_1" data-name="Layer 1" xmlns="http://www.w3.org/2000/svg" width="775.94" height="775.94" viewBox="0 0 775.94 775.94">
  <title>logoAngularJS</title>
  <rect x="0.5" y="0.5" width="774.94" height="774.94" style="fill: #fff;stroke: #fff;stroke-miterlimit: 10"/>
  <g id="g12">
    <polygon id="polygon14" points="230.38 356.68 273.7 413.72 273.7 356.68 282.36 356.68 282.36 427.49 273.2 427.49 229.88 369.95 229.88 427.49 221.22 427.49 221.22 356.68 230.38 356.68" style="fill: #ccc"/>
    <path id="path16" d="M352.67,424.71A51.3,51.3,0,0,1,334.2,428q-38.46,0-38.47-36.89,0-34.91,37.13-34.91a63.74,63.74,0,0,1,19.81,3v7.92a52.73,52.73,0,0,0-18.82-3.47q-29,0-29,27.48,0,29.46,28.52,29.46a48.45,48.45,0,0,0,10.1-1.19V395.3h9.16v29.41h0Z" style="fill: #ccc"/>
    <path id="path18" d="M367.27,400.16V356.69h9.2v43.47q0,20.4,20.3,20.41t20.3-20.41V356.69h9.16v43.47q0,27.84-29.46,27.83T367.27,400.16Z" style="fill: #ccc"/>
    <polygon id="polygon20" points="488.73 420.06 488.73 427.49 442.53 427.49 442.53 356.68 451.69 356.68 451.69 420.06 488.73 420.06" style="fill: #ccc"/>
    <polygon id="polygon22" points="527.64 347.35 562.84 427.49 552.69 427.49 543.53 405.2 520.12 405.2 522.64 397.79 540.46 397.79 527.24 365.7 501.94 427.49 492.44 427.49 527.64 347.35" style="fill: #ccc"/>
    <path id="path24" d="M572.47,427.47V356.69h30.2q20.2,0,20.2,17,0,13.82-19.75,20.45l24.35,33.33h-12.1l-22.52-31.83v-6q20.3-3.23,20.29-15.6,0-9.8-11.28-9.81h-20.2v63.24Z" style="fill: #ccc"/>
    <path id="path26" d="M661.77,356.69v50.4q0,20.4-24,20.4v-7.43q14.86,0,14.86-13V356.69h9.14Z" style="fill: #ccc"/>
    <path id="path28" d="M678.11,425v-8.42a71.35,71.35,0,0,0,24.06,4q18.27,0,18.27-13.38,0-11.37-13.47-11.39h-9.11q-22.23,0-22.23-19.31,0-20.3,28.48-20.3a85.48,85.48,0,0,1,23,3v8.42a65.47,65.47,0,0,0-23-4q-19.31,0-19.31,12.88,0,11.38,13.07,11.39H707q22.62,0,22.63,19.31,0,20.8-27.43,20.8a93.24,93.24,0,0,1-24.06-3Z" style="fill: #ccc"/>
    <polygon id="polygon30" points="232.69 354.37 276.01 411.41 276.01 354.37 284.68 354.37 284.68 425.17 275.52 425.17 232.2 367.64 232.2 425.17 223.53 425.17 223.53 354.37 232.69 354.37"/>
    <path id="path32" d="M355,422.4a51.28,51.28,0,0,1-18.52,3.27q-38.47,0-38.47-36.88,0-34.91,37.14-34.91a63.77,63.77,0,0,1,19.8,3v7.89a52.73,52.73,0,0,0-18.81-3.47q-29,0-29,27.48,0,29.46,28.52,29.46a48.33,48.33,0,0,0,10.1-1.19V393h9.15V422.4Z"/>
    <path id="path34" d="M369.59,397.84V354.37h9.15v43.47q0,20.4,20.3,20.4t20.3-20.4V354.37h9.13v43.47q0,27.83-29.46,27.83t-29.46-27.82Z"/>
    <polygon id="polygon36" points="491.04 417.74 491.04 425.17 444.85 425.17 444.85 354.37 454 354.37 454 417.74 491.04 417.74"/>
    <polygon id="polygon38" points="529.96 345.02 565.16 425.17 555 425.17 545.85 402.89 522.43 402.89 524.96 395.46 542.78 395.46 529.56 363.38 504.26 425.17 494.75 425.17 529.96 345.02"/>
    <path id="path40" d="M574.81,425.17v-70.8H605q20.2,0,20.2,17,0,13.81-19.75,20.44l24.31,33.36H617.69l-22.52-31.83v-6q20.3-3.22,20.3-15.59,0-9.8-11.29-9.8H584v63.22Z"/>
    <path id="path42" d="M664.08,354.37v50.4q0,20.4-24,20.4v-7.42q14.85,0,14.86-13V354.37Z" style="fill: #a6120d"/>
    <path id="path44" d="M680.47,422.69v-8.42a71.38,71.38,0,0,0,24.06,4q18.27,0,18.27-13.37,0-11.43-13.51-11.43h-9.12q-22.23,0-22.23-19.31,0-20.3,28.48-20.3a85.49,85.49,0,0,1,23,3v8.42a65.46,65.46,0,0,0-23-4q-19.31,0-19.31,12.88,0,11.38,13.07,11.39h9.11q22.62,0,22.63,19.31,0,20.8-27.43,20.8a93.3,93.3,0,0,1-24.06-3Z" style="fill: #a6120d"/>
    <path id="path46" d="M595.82,463l-3.35-10.22h-2.4l4.64,12.92c-.11.28-.28.71-.53,1.29s-.38.9-.42,1a1.76,1.76,0,0,1-.46.48,1.51,1.51,0,0,1-.86.19H592a7.09,7.09,0,0,1-.79-.19v1.92a5.77,5.77,0,0,0,.59.13,5.37,5.37,0,0,0,.69,0,2.94,2.94,0,0,0,2.58-1.05,35.71,35.71,0,0,0,2.58-5.85q.77-2,1.92-5.27,1.53-4.3,2-5.51h-2.33L595.86,463Zm-12.49.86a3.08,3.08,0,0,1-3.12-2.07,7.74,7.74,0,0,1-.45-2.87,4.78,4.78,0,0,1,1.09-3.52,3.51,3.51,0,0,1,2.53-1.07,2.82,2.82,0,0,1,2.51,1.3,5.86,5.86,0,0,1,.85,3.28,6.66,6.66,0,0,1-.85,3.59A2.84,2.84,0,0,1,583.33,463.82Zm-5.5,1.46h2v-1.6A5.76,5.76,0,0,0,581,465a4.12,4.12,0,0,0,2.42.69,4.7,4.7,0,0,0,4-2,8.12,8.12,0,0,0,1.45-4.94,6.84,6.84,0,0,0-1.47-4.75,4.92,4.92,0,0,0-3.82-1.61,4.62,4.62,0,0,0-3.75,1.85V448h-2v17.27h0Z"/>
  </g>
  <g id="g48">
    <polygon id="polygon50" points="57.59 437.28 127.3 475.59 197.37 436.76 210.43 328.43 127.21 299.84 44.52 328.94 57.59 437.28" style="fill: #b3b3b3"/>
    <polygon id="polygon52" points="127.02 466.44 190.01 431.58 202.18 334.69 127.02 309.06 127.02 466.44" style="fill: #a6120d"/>
    <polygon id="polygon54" points="127.02 466.44 127.02 309.06 53.8 335.15 65 432.04 127.02 466.44" style="fill: #dd1b16"/>
    <path id="path56" d="M147.71,392.84,127,402.47H105.21L95,428.16l-19.07.31L127,314.77Zm-2-4.87-18.55-36.73-15.22,36.1H127Z" style="fill: #f2f2f2"/>
    <polygon id="polygon58" points="144.42 387.37 127.06 387.37 127.02 402.49 151.03 402.51 162.25 428.51 180.5 428.85 127.02 314.77 127.16 351.24 144.42 387.37" style="fill: #b3b3b3"/>
  </g>
  <g id="g34">
    <path id="path36" d="M660.81,456.21a9.7,9.7,0,1,1-9.73-9.67h0a9.55,9.55,0,0,1,9.7,9.4Q660.81,456.07,660.81,456.21Zm-4.25,0a5.47,5.47,0,1,0-5.45,5.86,5.57,5.57,0,0,0,5.47-5.67q0-.09,0-.19Z"/>
    <path id="path38" d="M681.73,456.21a9.7,9.7,0,1,1-9.73-9.67h0a9.55,9.55,0,0,1,9.7,9.4Q681.73,456.07,681.73,456.21Zm-4.25,0a5.47,5.47,0,1,0-5.45,5.86,5.57,5.57,0,0,0,5.45-5.69q0-.08,0-.17Z"/>
    <path id="path41" d="M701.79,447.13v17.34c0,7.14-4.21,10.06-9.19,10.06a9.21,9.21,0,0,1-8.57-5.7l3.7-1.54a5.34,5.34,0,0,0,4.87,3.43c3.19,0,5.16-2,5.16-5.67v-1.39h-.15a6.58,6.58,0,0,1-5.09,2.2,9.67,9.67,0,0,1,0-19.33,6.7,6.7,0,0,1,5.09,2.16h.15v-1.57h4Zm-3.73,9.12c0-3.4-2.27-5.89-5.16-5.89a5.88,5.88,0,0,0,0,11.72c2.88,0,5.15-2.46,5.15-5.83Z"/>
    <path id="path43" d="M708.47,437v28.33h-4.14V437Z"/>
    <path id="path45" d="M724.57,459.4l3.3,2.2a9.62,9.62,0,0,1-8.06,4.28,9.46,9.46,0,0,1-9.59-9.33q0-.17,0-.34c0-5.75,4.14-9.67,9.12-9.67s7.47,4,8.27,6.15l.44,1.1-12.92,5.35a4.92,4.92,0,0,0,4.69,2.93,5.52,5.52,0,0,0,4.76-2.68Zm-10.1-3.48,8.64-3.59a3.74,3.74,0,0,0-3.59-2,5.3,5.3,0,0,0-5.05,5.54Z"/>
    <path id="path47" d="M625.74,453.7v-4.1h13.82a14.79,14.79,0,0,1-3.35,12.07,13.73,13.73,0,0,1-10.47,4.21,15,15,0,0,1,0-30A14.3,14.3,0,0,1,636,440l-2.89,2.89a10.46,10.46,0,0,0-7.4-2.93,10.91,10.91,0,0,0,0,21.82,10,10,0,0,0,7.58-3,8.5,8.5,0,0,0,2.22-5.08h-9.8Z"/>
  </g>
</svg>
