<svg id="Layer_1" data-name="Layer 1" xmlns="http://www.w3.org/2000/svg" width="591" height="591" viewBox="0 0 591 591">
  <title>logoHtml5</title>
  <rect width="591" height="591" style="fill: #fff"/>
  <polygon points="147.15 510.38 114.14 140.12 476.87 140.12 443.82 510.32 295.29 551.5 147.15 510.38" style="fill: #e44d26"/>
  <polygon points="295.5 520.02 415.54 486.75 443.77 170.39 295.5 170.39 295.5 520.02" style="fill: #f16529"/>
  <polygon points="295.5 307.72 235.41 307.72 231.26 261.22 295.5 261.22 295.5 215.81 295.35 215.81 181.63 215.81 182.72 227.99 193.88 353.13 295.5 353.13 295.5 307.72" style="fill: #ebebeb"/>
  <polygon points="295.5 425.65 295.31 425.71 244.72 412.05 241.5 375.83 216.93 375.83 195.91 375.83 202.28 447.13 295.3 472.96 295.5 472.9 295.5 425.65" style="fill: #ebebeb"/>
  <path d="M147.88,39.5H171V62.3h21.11V39.5h23.08v69H192.08V85.42H171V108.5H147.88Z"/>
  <path d="M245.5,62.4H225.18V39.5H288.9V62.4H268.58v46.1H245.5Z"/>
  <path d="M299,39.5h24.06l14.8,24.26L352.67,39.5h24.07v69h-23V74.32L337.89,98.87h-.38L321.59,74.32V108.5H299Z"/>
  <path d="M388.22,39.5H411.3V85.72h32.45V108.5H388.22Z"/>
  <polygon points="295.35 307.72 295.35 353.13 351.26 353.13 346 412.02 295.35 425.69 295.35 472.94 388.44 447.13 389.13 439.46 399.8 319.91 400.9 307.72 388.67 307.72 295.35 307.72" style="fill: #fff"/>
  <polygon points="295.35 215.81 295.35 244.01 295.35 261.1 295.35 261.22 404.88 261.22 404.88 261.22 405.04 261.22 405.94 251.01 408.01 227.99 409.1 215.81 295.35 215.81" style="fill: #fff"/>
</svg>
