<svg id="svg3059" xmlns="http://www.w3.org/2000/svg" width="505.64" height="505.15" viewBox="0 0 505.64 505.15">
  <title>logoLess</title>
  <rect width="505.15" height="1.01" style="fill: none"/>
  <g>
    <path id="path21" d="M402.18,250.72q28.17,9.86,28.17,33.76,0,15.73-11.66,25c-7.76,6.16-18.83,10-33.24,10s-27.74-4.18-40-11a35.46,35.46,0,0,1,2.86-12,32.67,32.67,0,0,1,6.24-10.28Q371.48,295,384,295c3.94,0,7-.66,9.11-2a6,6,0,0,0,3.18-5.34q0-6.31-9.75-9.45l-11.66-4.4q-26.46-9.64-26.46-31.46,0-15.94,11.12-25.28c7.41-6.22,17.4-11.58,30-11.58a91,91,0,0,1,20.54,2.62c7.48,1.75,13.62,6.06,18.42,8.43a29.79,29.79,0,0,1-2.33,12.9q-2.76,7-6.78,10-17.8-8-29.65-8c-2.83,0-5,.63-6.46,1.89a6,6,0,0,0-2.21,4.82q0,5,8,8l13.15,4.63Z" style="fill: #f6f6f6"/>
    <path id="path23" d="M308.36,250.72q28.17,9.86,28.17,33.76,0,15.73-11.65,25c-7.77,6.16-18.84,10-33.25,10s-27.75-4.18-40-11a35.38,35.38,0,0,1,2.86-12,32.52,32.52,0,0,1,6.24-10.28q16.94,8.8,29.44,8.8c3.94,0,7-.66,9.1-2a6.06,6.06,0,0,0,3.18-5.34q0-6.31-9.75-9.45l-11.62-4.43q-26.47-9.64-26.47-31.46,0-15.94,11.13-25.28c7.41-6.22,17.39-11.58,30-11.58a90.87,90.87,0,0,1,20.54,2.62c7.49,1.75,13.62,6.06,18.42,8.43a29.79,29.79,0,0,1-2.33,12.9q-2.75,7-6.78,10-17.81-8-29.66-8c-2.83,0-5,.63-6.46,1.89a6.06,6.06,0,0,0-2.21,4.82q0,5,8,8l13.14,4.63Z" style="fill: #f6f6f6"/>
    <path id="path25" d="M239.94,252.21a50.38,50.38,0,0,0-3.07-17.83,40,40,0,0,0-8.8-14.05,40.73,40.73,0,0,0-13.87-9.23c-5.44-2.23-11.55-5.6-18.32-5.6-8,0-15.07,3.64-21.07,6.44A40.29,40.29,0,0,0,160,223.46a49.37,49.37,0,0,0-8.69,17.31,78.49,78.49,0,0,0-2.86,21.71,101.43,101.43,0,0,0,2.33,22.45,46.92,46.92,0,0,0,7.94,17.82,37.62,37.62,0,0,0,14.61,11.74,52.42,52.42,0,0,0,22.34,4.94c16.37,0,30.21-4.74,41.5-12.71q-1.68-12.15-8.64-19.3a110.53,110.53,0,0,1-15.3,4.67,57.3,57.3,0,0,1-11.71,1.41q-10.13,0-14.56-5.19c-3-3.47-4.56-7.54-4.85-13.75h55.07C239,268.68,239.94,260.74,239.94,252.21Zm-58,1.45c.42-7.14,1.72-14.77,3.89-17.92s5.49-4.72,10-4.72,8.09,1.67,10.4,5,3.47,10.12,3.47,15.29v2.32H181.93Z" style="fill: #f6f6f6"/>
    <path id="path27" d="M488.45,267.58c-6,5.23-9.46,12.75-9.46,22.59V326.8c0,12.18-3.74,21.44-12.2,27.81s-18.3,9.51-29.54,9.81h-6.66V346.15c5.87-1.71,8.28-3.71,10.62-6,4.23-3.83,7.48-10,7.48-18.7V291.9c.16-10,.93-17.93,4.59-23.62s10.82-10.66,21.45-15q-17.61-8.06-23.64-21c-2.36-5.14-2.41-12.08-2.41-20.8V184.35c0-9-2.93-15.23-6.54-18.82-2.35-2.34-5.07-4.2-11.57-5.61V142.8c7.94.08,12,0,16.57,0,7.12-.06,13.08,3.84,18.28,7.89a35.78,35.78,0,0,1,12,18A41.6,41.6,0,0,1,479,181.21v31.37c0,11.08,3.27,19.31,8.87,24.69,3.15,3.12,7.6,6,15.24,8.55V260A34.71,34.71,0,0,0,488.45,267.58Z" style="fill: #f6f6f6;stroke: #404040;stroke-miterlimit: 10;stroke-width: 5.150899887084961px"/>
    <path id="path29" d="M67.24,142.8h-6c-7.12-.06-13.09,3.83-18.27,7.89-5.66,4.45-10.51,10.25-12,18-.87,4.56-.68,8.54-.68,12.52v31.37c0,11.08-4.12,19.31-9.71,24.69-3.15,3.12-9.87,6-17.51,8.54V260c6.78,1.87,13.3,4.4,16.92,7.61a29.25,29.25,0,0,1,10.31,22.6v36.63c0,12.17,2.9,21.44,11.35,27.8s18.29,9.52,29.53,9.82H78.7V346.15c-5.87-1.72-9.13-3.71-11.48-6-4.23-3.83-6.63-10-6.63-18.7V291.91c-.16-10.06-1.78-17.93-5.45-23.62s-10.81-10.66-21.45-15q17.61-8.07,23.64-21c2.37-5.14,3.26-12.08,3.26-20.81V184.36c0-9,2.08-15.23,5.68-18.82,2-1.95,5.43-3.55,10.26-4.85l7.64.05v-18H67.24Z" style="fill: #f6f6f6;stroke: #404040;stroke-miterlimit: 10;stroke-width: 5.150899887084961px"/>
    <path id="path31" d="M137.65,291.43h-5.72c-6.22,0-8.56-3.27-8.56-9.84V160.9c0-7.26-2.1-12.35-4.78-15.29s-7.34-2.9-14-2.9H90.18V287.43c0,10.07,2.26,17.44,6.29,22.13s10.84,7,20.44,7a140.37,140.37,0,0,0,22.66-2.1q.64-2.12.64-9.09a40.69,40.69,0,0,0-2.54-14Z" style="fill: #f6f6f6"/>
  </g>
</svg>
