<?xml version="1.0" encoding="UTF-8"?>
<svg id="Layer_1" data-name="Layer 1" xmlns="http://www.w3.org/2000/svg" width="29.08" height="29.08" viewBox="0 0 29.08 29.08">
  <rect y="0" width="29.08" height="29.08" style="fill: #0c1928;"/>
  <g>
    <path d="m9.39,5.56h2.27v11.7c0,2.18-.48,3.72-1.46,4.63s-2.15,1.36-3.52,1.36-2.62-.34-3.73-1.02v-2.25h.1c1.02.75,2.05,1.12,3.1,1.12s1.85-.26,2.41-.77.84-1.49.84-2.93c0,0,0-11.84,0-11.84Z" style="fill: #14908c; stroke: #14908c; stroke-miterlimit: 10;"/>
    <path d="m19.56,13.7h6.57v7.9c-2.15,1.28-4.38,1.93-6.67,1.93-2.62,0-4.73-.83-6.34-2.5s-2.43-3.82-2.43-6.47.83-4.8,2.5-6.47,3.67-2.5,6.01-2.5,4.56.64,6.66,1.93v2.35h-.1c-2.05-1.39-4.07-2.07-6.06-2.07s-3.61.6-4.86,1.8c-1.25,1.2-1.88,2.83-1.88,4.88s.6,3.72,1.82,5,2.87,1.91,4.97,1.91c1.56,0,3.02-.36,4.37-1.1v-4.52h-4.57v-2.05h0Z" style="fill: #14908c; stroke: #14908c; stroke-miterlimit: 10;"/>
  </g>
</svg>