<svg id="Layer_1" data-name="Layer 1" xmlns="http://www.w3.org/2000/svg" width="510" height="510" viewBox="0 0 510 510">
  <title>logoPhotoshop</title>
  <rect x="5" y="5" width="500" height="500" style="fill: #18182e;stroke: #40d0fb;stroke-miterlimit: 10;stroke-width: 10px"/>
  <g>
    <path d="M163.73,156.4,161,170.64H149.22l13.5-62.32h14.52l12.11,62.32H177.6l-2.68-14.24Zm10.08-9.4-2-13c-.65-3.79-1.48-10-2-14.15h-.28c-.65,4.16-1.57,10.63-2.22,14.24L164.94,147Z" style="fill: #40d0fb"/>
    <path d="M227.35,106.65v50.58c0,4.35.19,9.25.37,13.41H217.27l-.65-5.09h-.19a11,11,0,0,1-9.43,5.83c-9.62,0-14.06-10.63-14.06-23.3,0-15.72,6.84-23.39,14.52-23.39,4,0,6.47,1.94,7.58,4.53h.18V106.65ZM215.24,142.8c0-.83,0-1.76-.09-2.68-.46-2.77-1.94-5.27-4.35-5.27-4.25,0-5.83,6.2-5.83,13.5,0,8.6,2.31,13.13,5.73,13.13,1.48,0,3.24-.83,4.16-4a7.74,7.74,0,0,0,.37-2.77Z" style="fill: #40d0fb"/>
    <path d="M268.86,147.89c0,18.86-10.45,23.49-17.29,23.49-10.82,0-17.29-8.51-17.29-23.21,0-16.27,8.51-23.49,17.48-23.49C262.39,124.68,268.86,133.65,268.86,147.89Zm-22.56,0c0,7.77,1.2,14.24,5.55,14.24,3.88,0,4.9-7.58,4.9-14.24,0-6.2-1-14.06-5.09-14.06-4.43,0-5.36,7.86-5.36,14.06Z" style="fill: #40d0fb"/>
    <path d="M275.24,170.64c.19-4,.37-9.06.37-13.41V106.65h12.11V130h.19c2.22-3.24,5.09-5.27,9.43-5.27,8.78,0,12.76,9.89,12.76,22.1,0,15.81-6.29,24.6-14.7,24.6-3.79,0-6.47-1.57-8.88-6.1h-.28l-.65,5.36Zm12.48-16.18a8.06,8.06,0,0,0,.46,2.87c1,3.24,2.68,4.16,4.16,4.16,4.07,0,5.73-5.09,5.73-13.78,0-7.77-1.76-12.85-5.83-12.85-1.85,0-3.42,1.94-4.07,4.16a9.18,9.18,0,0,0-.46,2.77Z" style="fill: #40d0fb"/>
    <path d="M327.11,152.33c.19,7,4.25,9.62,9.62,9.62a26.68,26.68,0,0,0,8.6-1.48l1.66,8.69a37.49,37.49,0,0,1-12.48,2c-12.3,0-19-8.14-19-22.28,0-15.17,7.86-24.23,18.12-24.23,9.71,0,15.35,7.67,15.35,21.36a32.14,32.14,0,0,1-.37,6.29Zm10.82-8.51c0-5.83-1.48-10.36-5.09-10.36-4,0-5.55,5.83-5.64,10.36Z" style="fill: #40d0fb"/>
    <path d="M82.37,220.19A63.38,63.38,0,0,1,95,219c7.21,0,12.85,1,16.92,4.81,3.7,3.24,5.36,8.41,5.36,13.69,0,6.75-2,11.47-5.27,15-3.88,4.07-10.17,5.92-15.16,5.92h-2.4v23.21H82.37Zm12.11,28.3a6.3,6.3,0,0,0,1.94.19c6.1,0,8.88-4.35,8.88-10.17,0-5.46-2.22-9.71-7.86-9.71a9,9,0,0,0-3,.46Z" style="fill: #40d0fb"/>
    <path d="M123.51,217.61h12.11V241.1h.19a14.11,14.11,0,0,1,3.88-3.88,12.23,12.23,0,0,1,6.1-1.57c8.32,0,11.56,7,11.56,18.49V281.6H145.24V254.13c0-4.44-.83-8.32-4.44-8.32-2,0-3.79,1.2-4.72,4.25a18,18,0,0,0-.46,3.42v28.11H123.51Z" style="fill: #40d0fb"/>
    <path d="M198.87,258.85c0,18.86-10.45,23.49-17.29,23.49-10.82,0-17.29-8.51-17.29-23.21,0-16.27,8.51-23.49,17.48-23.49C192.4,235.64,198.87,244.61,198.87,258.85Zm-22.56,0c0,7.77,1.2,14.24,5.55,14.24,3.88,0,4.9-7.58,4.9-14.24,0-6.2-1-14.06-5.09-14.06C177.23,244.79,176.31,252.65,176.31,258.85Z" style="fill: #40d0fb"/>
    <path d="M220,224.17v12.21h8.88V245H220v20.6c0,5.27,2.22,6.57,4.62,6.57a16.6,16.6,0,0,0,3.14-.28l.09,9.43a28.53,28.53,0,0,1-7.4.83c-3.51,0-6.57-.83-8.69-2.87-2.5-2.4-3.88-5.83-3.88-13V245h-5.36v-8.6h5.36V227Z" style="fill: #40d0fb"/>
    <path d="M266.92,258.85c0,18.86-10.45,23.49-17.29,23.49-10.82,0-17.29-8.51-17.29-23.21,0-16.27,8.51-23.49,17.48-23.49C260.45,235.64,266.92,244.61,266.92,258.85Zm-22.56,0c0,7.77,1.2,14.24,5.55,14.24,3.88,0,4.9-7.58,4.9-14.24,0-6.2-1-14.06-5.09-14.06-4.44,0-5.36,7.86-5.36,14.06Z" style="fill: #40d0fb"/>
    <path d="M273.39,270.68a16.93,16.93,0,0,0,8.14,2.4c3.14,0,4.9-1.39,4.9-4.07,0-2.31-1.29-3.79-5.27-6.1-7.4-4.16-9.15-8.88-9.15-13,0-8.14,5.83-14.24,14.89-14.24a21.27,21.27,0,0,1,9.15,2l-2.13,8.88a12.56,12.56,0,0,0-6.29-1.85c-3,0-4.53,1.85-4.53,3.88s1,3.14,5.27,5.64c6.66,3.79,9.15,8.51,9.15,13.69,0,9.25-6.66,14.24-16,14.24-3.79,0-8.23-1-10.36-2.59Z" style="fill: #40d0fb"/>
    <path d="M303.72,217.61h12.11V241.1H316a14.11,14.11,0,0,1,3.88-3.88,12.23,12.23,0,0,1,6.1-1.57c8.32,0,11.56,7,11.56,18.49V281.6H325.45V254.13c0-4.44-.83-8.32-4.44-8.32-2,0-3.79,1.2-4.72,4.25a18,18,0,0,0-.46,3.42v28.11H303.72Z" style="fill: #40d0fb"/>
    <path d="M379.08,258.85c0,18.86-10.45,23.49-17.29,23.49-10.82,0-17.29-8.51-17.29-23.21,0-16.27,8.51-23.49,17.48-23.49C372.61,235.64,379.08,244.61,379.08,258.85Zm-22.56,0c0,7.77,1.2,14.24,5.55,14.24,3.88,0,4.9-7.58,4.9-14.24,0-6.2-1-14.06-5.09-14.06C357.44,244.79,356.52,252.65,356.52,258.85Z" style="fill: #40d0fb"/>
    <path d="M385.83,250.71c0-5.46-.19-10.08-.37-14.33H396l.65,5.18h.19a10.29,10.29,0,0,1,9.43-5.92c10,0,14.06,10.73,14.06,23.3,0,16.09-7.12,23.39-14.7,23.39a8.79,8.79,0,0,1-7.49-4.44h-.19v21.45H385.83ZM397.94,265a9.19,9.19,0,0,0,.65,3.88c.92,2.77,2.5,3.51,3.88,3.51,4.25,0,5.73-6.29,5.73-13.41,0-8.6-2-13.22-5.64-13.22-1.85,0-3.61,1.76-4.07,3.88a7.47,7.47,0,0,0-.55,3.24Z" style="fill: #40d0fb"/>
    <path d="M249.26,391.63c-1.76.83-5.18,1.48-9.43,1.48-15.9,0-23.49-13.13-23.49-30.79,0-23.49,13-32.64,25.15-32.64,4.25,0,7.21.83,8.42,1.66l-2,10.17a12.19,12.19,0,0,0-5.64-1.2c-6.84,0-13,5.92-13,21.36,0,14.89,5.64,20.71,13,20.71a21.37,21.37,0,0,0,5.83-.92Z" style="fill: #40d0fb"/>
    <path d="M284.68,391.63c-1.76.83-5.18,1.48-9.43,1.48-15.9,0-23.49-13.13-23.49-30.79,0-23.49,13-32.64,25.15-32.64,4.25,0,7.21.83,8.41,1.66l-2,10.17a12.19,12.19,0,0,0-5.64-1.2c-6.84,0-13,5.92-13,21.36,0,14.89,5.64,20.71,13,20.71a21.37,21.37,0,0,0,5.83-.92Z" style="fill: #40d0fb"/>
  </g>
</svg>
