<svg id="Layer_1" data-name="Layer 1" xmlns="http://www.w3.org/2000/svg" width="510" height="510" viewBox="0 0 510 510">
  <title>logoIllustrator</title>
  <rect x="5" y="5" width="500" height="500" style="fill: #221006;stroke: #ff7e17;stroke-miterlimit: 10;stroke-width: 10px"/>
  <g>
    <path d="M163.73,156.4,161,170.64H149.22l13.5-62.32h14.52l12.11,62.32H177.6l-2.68-14.24ZM173.81,147l-2-13c-.65-3.79-1.48-10-2-14.15h-.28c-.65,4.16-1.57,10.63-2.22,14.24L164.94,147Z" style="fill: #ff7e17"/>
    <path d="M227.35,106.65v50.58c0,4.35.19,9.25.37,13.41H217.27l-.65-5.09h-.19a11,11,0,0,1-9.43,5.83c-9.62,0-14.06-10.63-14.06-23.3,0-15.72,6.84-23.39,14.52-23.39,4,0,6.47,1.94,7.58,4.53h.18V106.65ZM215.24,142.8c0-.83,0-1.76-.09-2.68-.46-2.77-1.94-5.27-4.35-5.27-4.25,0-5.83,6.2-5.83,13.5,0,8.6,2.31,13.13,5.73,13.13,1.48,0,3.24-.83,4.16-4a7.74,7.74,0,0,0,.37-2.77Z" style="fill: #ff7e17"/>
    <path d="M268.86,147.89c0,18.86-10.45,23.49-17.29,23.49-10.82,0-17.29-8.51-17.29-23.21,0-16.27,8.51-23.49,17.48-23.49C262.39,124.68,268.86,133.65,268.86,147.89Zm-22.56,0c0,7.77,1.2,14.24,5.55,14.24,3.88,0,4.9-7.58,4.9-14.24,0-6.2-1-14.06-5.09-14.06C247.23,133.83,246.3,141.69,246.3,147.89Z" style="fill: #ff7e17"/>
    <path d="M275.24,170.64c.19-4,.37-9.06.37-13.41V106.65h12.11V130h.19c2.22-3.24,5.09-5.27,9.43-5.27,8.78,0,12.76,9.89,12.76,22.1,0,15.81-6.29,24.6-14.7,24.6-3.79,0-6.47-1.57-8.88-6.1h-.28l-.65,5.36Zm12.48-16.18a8.06,8.06,0,0,0,.46,2.87c1,3.24,2.68,4.16,4.16,4.16,4.07,0,5.73-5.09,5.73-13.78,0-7.77-1.76-12.85-5.83-12.85-1.85,0-3.42,1.94-4.07,4.16a9.18,9.18,0,0,0-.46,2.77Z" style="fill: #ff7e17"/>
    <path d="M327.11,152.33c.19,7,4.25,9.62,9.62,9.62a26.68,26.68,0,0,0,8.6-1.48l1.66,8.69a37.49,37.49,0,0,1-12.48,2c-12.3,0-19-8.14-19-22.28,0-15.17,7.86-24.23,18.12-24.23,9.71,0,15.35,7.67,15.35,21.36a32.14,32.14,0,0,1-.37,6.29Zm10.82-8.51c0-5.83-1.48-10.36-5.09-10.36-4,0-5.55,5.83-5.64,10.36Z" style="fill: #ff7e17"/>
    <path d="M127.67,219.27v62.32H115.56V219.27Z" style="fill: #ff7e17"/>
    <path d="M137.38,250c0-5-.28-9.34-.37-13.59h10.45l.55,5.18h.19a13,13,0,0,1,11-5.92c8.6,0,12,6.84,12,16.92v29H159.11V253.3c0-3.88-.92-7.49-4.44-7.49-2,0-3.7,1.39-4.53,4.07a11.85,11.85,0,0,0-.65,4.16v27.56H137.38Z" style="fill: #ff7e17"/>
    <path d="M212.55,217.61v50.58c0,4.35.19,9.25.37,13.41H202.48l-.65-5.09h-.19a11,11,0,0,1-9.43,5.83c-9.62,0-14.06-10.63-14.06-23.3,0-15.72,6.84-23.39,14.52-23.39,4,0,6.47,1.94,7.58,4.53h.18V217.61Zm-12.11,36.15c0-.83,0-1.76-.09-2.68-.46-2.77-1.94-5.27-4.35-5.27-4.25,0-5.83,6.2-5.83,13.5,0,8.6,2.31,13.13,5.73,13.13,1.48,0,3.24-.83,4.16-4a7.74,7.74,0,0,0,.37-2.77Z" style="fill: #ff7e17"/>
    <path d="M231.14,263.28c.19,7,4.25,9.62,9.62,9.62a26.68,26.68,0,0,0,8.6-1.48l1.66,8.69a37.49,37.49,0,0,1-12.48,2c-12.3,0-19-8.14-19-22.28,0-15.17,7.86-24.23,18.12-24.23,9.71,0,15.35,7.67,15.35,21.36a32.14,32.14,0,0,1-.37,6.29ZM242,254.78c0-5.83-1.48-10.36-5.09-10.36-4,0-5.55,5.83-5.64,10.36Z" style="fill: #ff7e17"/>
    <path d="M259.43,270.68a16.93,16.93,0,0,0,8.14,2.4c3.14,0,4.9-1.39,4.9-4.07,0-2.31-1.29-3.79-5.27-6.1-7.4-4.16-9.15-8.88-9.15-13,0-8.14,5.83-14.24,14.89-14.24a21.27,21.27,0,0,1,9.15,2L280,246.55a12.56,12.56,0,0,0-6.29-1.85c-3.05,0-4.53,1.85-4.53,3.88s1,3.14,5.27,5.64c6.66,3.79,9.15,8.51,9.15,13.69,0,9.25-6.66,14.24-16,14.24-3.79,0-8.23-1-10.36-2.59Z" style="fill: #ff7e17"/>
    <path d="M301.87,224.36a6.17,6.17,0,0,1-6.38,6.57,6.58,6.58,0,0,1,.19-13.13C299.19,217.79,301.87,220.29,301.87,224.36Zm-12.11,57.24V236.38h12.11v45.22Z" style="fill: #ff7e17"/>
    <path d="M343.76,236.38c-.19,4.07-.46,8.88-.46,14.33v25.8c0,9.71-1.76,15.07-5.46,18.59-3.33,3.14-8,5-14.7,5A28.86,28.86,0,0,1,311.86,298l2.22-9.34a21.18,21.18,0,0,0,8.69,1.94c6.1,0,8.51-4.07,8.51-11v-2.77h-.19a9.13,9.13,0,0,1-8.14,4.53c-10.17,0-14.15-11.1-14.15-21.92,0-15.07,6.84-23.76,15.26-23.76a9.06,9.06,0,0,1,8.32,5.27h.18l.65-4.53Zm-12.48,16.46a12.06,12.06,0,0,0-.46-3.33c-.55-1.94-1.85-3.7-3.88-3.7-4.35,0-6.1,5.92-6.1,13.32,0,8.41,2.4,12.67,5.83,12.67,1.57,0,3.14-.83,4.07-3.24a11.34,11.34,0,0,0,.55-3.61Z" style="fill: #ff7e17"/>
    <path d="M351.71,250c0-5-.28-9.34-.37-13.59h10.45l.55,5.18h.19a13,13,0,0,1,11-5.92c8.6,0,12,6.84,12,16.92v29H373.44V253.3c0-3.88-.92-7.49-4.44-7.49-2,0-3.7,1.39-4.53,4.07a11.86,11.86,0,0,0-.65,4.16v27.56H351.71Z" style="fill: #ff7e17"/>
    <path d="M249.26,391.63c-1.76.83-5.18,1.48-9.43,1.48-15.9,0-23.49-13.13-23.49-30.79,0-23.49,13-32.64,25.15-32.64,4.25,0,7.21.83,8.42,1.66l-2,10.17a12.19,12.19,0,0,0-5.64-1.2c-6.84,0-13,5.92-13,21.36,0,14.89,5.64,20.71,13,20.71a21.37,21.37,0,0,0,5.83-.92Z" style="fill: #ff7e17"/>
    <path d="M284.68,391.63c-1.76.83-5.18,1.48-9.43,1.48-15.9,0-23.49-13.13-23.49-30.79,0-23.49,13-32.64,25.15-32.64,4.25,0,7.21.83,8.41,1.66l-2,10.17a12.19,12.19,0,0,0-5.64-1.2c-6.84,0-13,5.92-13,21.36,0,14.89,5.64,20.71,13,20.71a21.37,21.37,0,0,0,5.83-.92Z" style="fill: #ff7e17"/>
  </g>
</svg>
