<?xml version="1.0" encoding="UTF-8"?>
<svg xmlns="http://www.w3.org/2000/svg" width="35.28mm" height="35.41mm" xmlns:xlink="http://www.w3.org/1999/xlink" viewBox="0 0 100 100.38">
  <defs>
    <style>
      .cls-1 {
        fill: #f1cf00;
      }

      .cls-2 {
        fill: #e6322a;
      }

      .cls-3 {
        fill: #fff;
      }

      .cls-4 {
        fill: #feda00;
      }

      .cls-5 {
        fill: #65b54c;
      }

      .cls-6 {
        fill: #da3027;
      }

      .cls-7 {
        fill: #60ac48;
      }

      .cls-8 {
        fill: url(#linear-gradient);
      }
    </style>
    <linearGradient id="linear-gradient" x1="49.75" y1="32.19" x2="49.75" y2="67.96" gradientTransform="matrix(1, 0, 0, 1, 0, 0)" gradientUnits="userSpaceOnUse">
      <stop offset="0" stop-color="#96c1e9"/>
      <stop offset="1" stop-color="#146cb5"/>
    </linearGradient>
  </defs>
  <path d="M49.87,0s29.48-1.33,45.1,28.3H47.36s-8.99-.3-16.66,10.61c-2.21,4.57-4.57,9.29-1.92,18.57-3.83-6.48-20.34-35.23-20.34-35.23C8.45,22.27,20.1,1.19,49.87,0Z" style="fill: #e6322a;"/>
  <path d="M93.44,75.23s-13.59,26.19-47.07,24.9c4.13-7.15,23.81-41.23,23.81-41.23,0,0,4.75-7.64-.86-19.73-2.85-4.2-5.76-8.6-15.13-10.95,7.53-.07,40.68,0,40.68,0,0,0,12.43,20.63-1.44,47Z" style="fill: #feda00;"/>
  <path d="M6.51,75.43s-15.88-24.87,1.97-53.21c4.13,7.15,23.8,41.24,23.8,41.24,0,0,4.24,7.93,17.52,9.12,5.06-.37,10.33-.68,17.04-7.62-3.7,6.56-20.35,35.23-20.35,35.23,0,0-24.08,.45-39.98-24.75Z" style="fill: #65b54c;"/>
  <path d="M46.37,100.38l6.7-27.95s7.36-.57,13.53-7.35c-3.83,6.74-20.23,35.29-20.23,35.29Z" style="fill: #60ac48;"/>
  <path d="M27.44,50.5c0-12.32,9.99-22.31,22.31-22.31s22.31,9.99,22.31,22.31-9.99,22.31-22.31,22.31-22.31-9.99-22.31-22.31Z" style="fill: #fff;"/>
  <path d="M31.17,50.5c0-10.26,8.32-18.57,18.57-18.57s18.57,8.32,18.57,18.57-8.32,18.57-18.57,18.57-18.57-8.32-18.57-18.57Z" style="fill: url(#linear-gradient);"/>
  <path d="M94.88,28.23l-27.58,8.09s-4.16-6.1-13.1-8.09c7.75-.03,40.68,0,40.68,0Z" style="fill: #f1cf00;"/>
  <path d="M28.25,56.49c-3.88-6.71-19.8-34.23-19.8-34.23l20.43,20.21s-2.1,4.32-1.3,10.49l.68,3.53Z" style="fill: #da3027;"/>
</svg>